HIERARCHY
ROOT Hips
{
	OFFSET 0.000000 0.000000 0.000000
	CHANNELS 6 Xposition Yposition Zposition Zrotation Yrotation Xrotation 
	JOINT LowerBack
	{
		OFFSET 0.000000 0.000000 0.000000
		CHANNELS 3 Zrotation Yrotation Xrotation
		JOINT Spine
		{
			OFFSET 0.028270 2.035590 -0.193380
			CHANNELS 3 Zrotation Yrotation Xrotation
			JOINT Spine1
			{
				OFFSET 0.056720 2.048850 -0.042750
				CHANNELS 3 Zrotation Yrotation Xrotation
				JOINT Neck
				{
					OFFSET 0.000000 0.000000 0.000000
					CHANNELS 3 Zrotation Yrotation Xrotation
					JOINT Neck1
					{
						OFFSET -0.054170 1.746240 0.172020
						CHANNELS 3 Zrotation Yrotation Xrotation
						JOINT Head
						{
							OFFSET 0.104070 1.761360 -0.123970
							CHANNELS 3 Zrotation Yrotation Xrotation
							End Site
							{
								OFFSET 0.000000 0.000000 0.000000
							}
						}
					}
				}
				JOINT LeftShoulder
				{
					OFFSET 0.000000 0.000000 0.000000
					CHANNELS 3 Zrotation Yrotation Xrotation
					JOINT LeftArm
					{
						OFFSET 3.362410 1.200890 -0.311210
						CHANNELS 3 Zrotation Yrotation Xrotation
						JOINT LeftForeArm
						{
							OFFSET 4.983000 -0.000000 -0.000000
							CHANNELS 3 Zrotation Yrotation Xrotation
							JOINT LeftHand
							{
								OFFSET 3.483560 -0.000000 -0.000000
								CHANNELS 3 Zrotation Yrotation Xrotation
								JOINT LeftFingerBase
								{
									OFFSET 0.000000 0.000000 0.000000
									CHANNELS 3 Zrotation Yrotation Xrotation
									JOINT LeftHandIndex1
									{
										OFFSET 0.715260 -0.000000 -0.000000
										CHANNELS 3 Zrotation Yrotation Xrotation
										End Site
										{
											OFFSET 0.000000 0.000000 0.000000
										}
									}
								}
								JOINT LThumb
								{
									OFFSET 0.000000 0.000000 0.000000
									CHANNELS 3 Zrotation Yrotation Xrotation
									End Site
									{
										OFFSET 0.000000 0.000000 0.000000
									}
								}
							}
						}
					}
				}
				JOINT RightShoulder
				{
					OFFSET 0.000000 0.000000 0.000000
					CHANNELS 3 Zrotation Yrotation Xrotation
					JOINT RightArm
					{
						OFFSET -3.136600 1.374050 -0.404650
						CHANNELS 3 Zrotation Yrotation Xrotation
						JOINT RightForeArm
						{
							OFFSET -5.241900 -0.000000 -0.000000
							CHANNELS 3 Zrotation Yrotation Xrotation
							JOINT RightHand
							{
								OFFSET -3.444170 -0.000000 -0.000000
								CHANNELS 3 Zrotation Yrotation Xrotation
								JOINT RightFingerBase
								{
									OFFSET 0.000000 0.000000 0.000000
									CHANNELS 3 Zrotation Yrotation Xrotation
									JOINT RightHandIndex1
									{
										OFFSET -0.622530 -0.000000 -0.000000
										CHANNELS 3 Zrotation Yrotation Xrotation
										End Site
										{
											OFFSET 0.000000 0.000000 0.000000
										}
									}
								}
								JOINT RThumb
								{
									OFFSET 0.000000 0.000000 0.000000
									CHANNELS 3 Zrotation Yrotation Xrotation
									End Site
									{
										OFFSET 0.000000 0.000000 0.000000
									}
								}
							}
						}
					}
				}
			}
		}
	}
}
}
MOTION
Frames: 18
Frame Time: 0.008333
3.110080 17.608506 2.472226 -29.398256 -29.687866 32.000423 18.816004 1.163841 -5.642869 3.436318 -0.851256 -3.740494 -4.795557 -0.712382 -1.455718 19.007358 -13.410205 -2.502521 -0.953222 -0.130432 1.240374 0.000000 0.000000 0.000000 3.398094 1.708064 -1.557758 -87.316189 -15.027735 20.489379 -0.396545 -76.908139 -0.120927 14.840034 -5.134843 -0.748941 -0.186083 0.563655 0.000000 0.000000 0.000000 0.000000 0.000000 0.000000 0.000000 4.023506 -9.204786 -0.831926 43.506655 23.989316 11.280163 178.858478 55.450731 179.886759 -12.723775 11.093916 -1.393540 0.451138 -0.945043 0.000000 0.000000 0.000000 0.000000 0.000000 0.000000 0.000000 
3.087966 17.605854 2.490317 -29.874246 -30.867636 32.436870 18.590697 1.230110 -5.703916 3.367131 -0.768295 -3.717552 -4.814226 -0.617626 -1.287763 18.930541 -13.178359 -2.460466 -1.018596 -0.135507 1.255471 0.000000 0.000000 0.000000 3.412929 2.258950 -1.570293 -86.931848 -14.074822 20.089199 -0.400234 -77.394774 -0.118381 14.777165 -4.902867 -0.713641 -0.184539 0.552292 0.000000 0.000000 0.000000 0.000000 0.000000 0.000000 0.000000 4.382670 -8.992210 -0.931441 43.578030 25.136126 11.770496 178.894438 55.978477 179.886266 -12.734942 11.092714 -1.393857 0.446932 -0.942544 0.000000 0.000000 0.000000 0.000000 0.000000 0.000000 0.000000 
3.063569 17.602729 2.505082 -30.304218 -31.998988 32.835538 18.329534 1.257361 -5.754622 3.293337 -0.720389 -3.694305 -4.844394 -0.559609 -1.124438 18.850445 -12.927170 -2.417737 -1.086569 -0.140828 1.271338 0.000000 0.000000 0.000000 3.434974 2.793673 -1.573955 -86.484401 -13.142863 19.656113 -0.404634 -77.849447 -0.116035 14.739078 -4.679859 -0.681041 -0.183482 0.541077 0.000000 0.000000 0.000000 0.000000 0.000000 0.000000 0.000000 4.748170 -8.769429 -1.032950 43.720186 26.279175 12.278770 178.935329 56.507013 179.885308 -12.793728 11.095827 -1.399973 0.444048 -0.940110 0.000000 0.000000 0.000000 0.000000 0.000000 0.000000 0.000000 
3.037404 17.599614 2.516768 -30.670731 -33.048593 33.188192 18.029171 1.244761 -5.809258 3.214083 -0.708582 -3.676985 -4.886177 -0.539636 -0.976879 18.778220 -12.657033 -2.370203 -1.157824 -0.146522 1.289434 0.000000 0.000000 0.000000 3.471166 3.256958 -1.569095 -85.986228 -12.204102 19.164969 -0.409279 -78.271746 -0.113914 14.724226 -4.480966 -0.652743 -0.182546 0.530265 0.000000 0.000000 0.000000 0.000000 0.000000 0.000000 0.000000 5.129415 -8.536543 -1.130616 43.915428 27.374451 12.789926 178.977791 57.022679 179.883933 -12.901679 11.098495 -1.411385 0.442852 -0.937604 0.000000 0.000000 0.000000 0.000000 0.000000 0.000000 0.000000 
3.010642 17.596906 2.525723 -30.951852 -33.981680 33.467974 17.698364 1.192257 -5.860442 3.131603 -0.732709 -3.663949 -4.937260 -0.557293 -0.844510 18.714332 -12.395409 -2.326431 -1.229936 -0.152295 1.307099 0.000000 0.000000 0.000000 3.504418 3.645638 -1.556184 -85.450805 -11.294433 18.654907 -0.414286 -78.625863 -0.112062 14.739840 -4.318881 -0.630846 -0.181987 0.520072 0.000000 0.000000 0.000000 0.000000 0.000000 0.000000 0.000000 5.520486 -8.321556 -1.221506 44.149223 28.412037 13.289191 179.019462 57.522634 179.882205 -13.057379 11.098923 -1.427790 0.443469 -0.934924 0.000000 0.000000 0.000000 0.000000 0.000000 0.000000 0.000000 
2.983321 17.594940 2.532070 -31.127100 -34.781055 33.655791 17.325560 1.100644 -5.911617 3.043229 -0.790568 -3.657020 -4.997670 -0.610346 -0.730256 18.669369 -12.156054 -2.288182 -1.302449 -0.158108 1.323878 0.000000 0.000000 0.000000 3.544431 3.935708 -1.537183 -84.887839 -10.410246 18.131920 -0.419322 -78.904058 -0.110467 14.784748 -4.202307 -0.616150 -0.181672 0.510593 0.000000 0.000000 0.000000 0.000000 0.000000 0.000000 0.000000 5.929091 -8.137988 -1.301858 44.413326 29.369990 13.767894 179.057034 57.998902 179.880221 -13.254795 11.094230 -1.448189 0.445945 -0.932045 0.000000 0.000000 0.000000 0.000000 0.000000 0.000000 0.000000 
2.955165 17.593934 2.535945 -31.178233 -35.442091 33.735749 16.897109 0.972908 -5.964205 2.945730 -0.877580 -3.656722 -5.067285 -0.694125 -0.634276 18.652130 -11.954649 -2.257954 -1.374643 -0.163889 1.339019 0.000000 0.000000 0.000000 3.601670 4.113712 -1.514624 -84.304575 -9.551358 17.608035 -0.424038 -79.101592 -0.109089 14.855667 -4.136228 -0.609257 -0.181483 0.501848 0.000000 0.000000 0.000000 0.000000 0.000000 0.000000 0.000000 6.360766 -8.000797 -1.368769 44.704551 30.235247 14.221560 179.087377 58.445343 179.878099 -13.484525 11.082463 -1.471376 0.450197 -0.929009 0.000000 0.000000 0.000000 0.000000 0.000000 0.000000 0.000000 
2.925678 17.593936 2.537434 -31.096475 -35.973617 33.701852 16.400469 0.815153 -6.020110 2.835840 -0.986448 -3.663481 -5.145857 -0.801251 -0.556938 18.668353 -11.803002 -2.236185 -1.445909 -0.169602 1.352310 0.000000 0.000000 0.000000 3.687610 4.166727 -1.491385 -83.705914 -8.707437 17.086902 -0.427961 -79.226256 -0.107861 14.945425 -4.120602 -0.609764 -0.181200 0.493772 0.000000 0.000000 0.000000 0.000000 0.000000 0.000000 0.000000 6.817620 -7.919747 -1.419719 45.023668 30.997757 14.649412 179.107812 58.859114 179.875971 -13.734214 11.063414 -1.495749 0.455997 -0.925911 -0.000000 0.000000 0.000000 0.000000 0.000000 0.000000 0.000000 
2.894140 17.594885 2.536747 -30.881797 -36.396001 33.561720 15.823186 0.635086 -6.085885 2.710089 -1.108906 -3.677227 -5.233935 -0.923238 -0.493394 18.723862 -11.708612 -2.225333 -1.515370 -0.175164 1.362947 0.000000 0.000000 0.000000 3.812678 4.109372 -1.470141 -83.094417 -7.881668 16.588642 -0.430926 -79.281853 -0.106710 15.047832 -4.151154 -0.617074 -0.180818 0.486238 0.000000 0.000000 0.000000 0.000000 0.000000 0.000000 0.000000 7.301238 -7.899353 -1.455093 45.375224 31.655126 15.053585 179.116588 59.232831 179.873965 -13.989300 11.037959 -1.520006 0.463021 -0.922955 -0.000000 0.000000 0.000000 0.000000 0.000000 0.000000 0.000000 
2.860033 17.596537 2.534266 -30.546471 -36.737314 33.334057 15.163221 0.443050 -6.167378 2.567042 -1.235198 -3.698200 -5.330973 -1.050149 -0.441772 18.817281 -11.672571 -2.224308 -1.582352 -0.180542 1.371094 0.000000 0.000000 0.000000 3.979597 3.948608 -1.453117 -82.470728 -7.061261 16.115882 -0.432680 -79.287501 -0.105544 15.152467 -4.219947 -0.629685 -0.180175 0.479079 0.000000 0.000000 0.000000 0.000000 0.000000 0.000000 0.000000 7.805620 -7.936720 -1.475237 45.762573 32.204704 15.437722 179.112799 59.564131 179.872200 -14.234716 11.008498 -1.542646 0.470846 -0.920318 -0.000000 0.000000 0.000000 0.000000 0.000000 0.000000 0.000000 
2.822995 17.598570 2.530549 -30.111347 -37.029817 33.046504 14.423861 0.249422 -6.273204 2.406348 -1.356343 -3.726459 -5.436689 -1.172704 -0.397494 18.945388 -11.690868 -2.233095 -1.646026 -0.185673 1.376613 0.000000 0.000000 0.000000 4.185159 3.710749 -1.441827 -81.834057 -6.244605 15.680629 -0.433229 -79.259270 -0.104282 15.250439 -4.316349 -0.645897 -0.179275 0.472120 0.000000 0.000000 0.000000 0.000000 0.000000 0.000000 0.000000 8.322433 -8.023566 -1.482824 46.188812 32.649312 15.805738 179.096678 59.847163 179.870781 -14.455918 10.978075 -1.562567 0.479024 -0.918236 -0.000000 0.000000 0.000000 0.000000 0.000000 0.000000 0.000000 
2.782799 17.600592 2.526223 -29.601359 -37.305714 32.731032 13.616966 0.064409 -6.411588 2.229538 -1.464278 -3.762199 -5.550055 -1.282537 -0.356944 19.100712 -11.754331 -2.250336 -1.705722 -0.190515 1.379740 0.000000 0.000000 0.000000 4.419103 3.423431 -1.436923 -81.183231 -5.427946 15.289310 -0.432654 -79.216853 -0.102856 15.333246 -4.429107 -0.663806 -0.178133 0.465205 0.000000 0.000000 0.000000 0.000000 0.000000 0.000000 0.000000 8.839486 -8.146662 -1.481071 46.655315 32.992968 16.161760 179.069246 60.079019 179.869784 -14.640270 10.950473 -1.578871 0.487099 -0.916904 -0.000000 0.000000 0.000000 0.000000 0.000000 0.000000 0.000000 
2.739232 17.602247 2.521901 -29.039171 -37.594357 32.419197 12.753081 -0.104310 -6.594509 2.038083 -1.553405 -3.806264 -5.670541 -1.373759 -0.315391 19.276927 -11.850587 -2.275702 -1.760932 -0.195026 1.380491 0.000000 0.000000 0.000000 4.671689 3.122544 -1.438460 -80.515766 -4.613310 14.950900 -0.431137 -79.175644 -0.101212 15.394786 -4.547349 -0.681613 -0.176869 0.458204 0.000000 0.000000 0.000000 0.000000 0.000000 0.000000 0.000000 9.346935 -8.290006 -1.474191 47.162479 33.239928 16.508774 179.032143 60.256677 179.869262 -14.778169 10.929691 -1.591254 0.494667 -0.916508 -0.000000 0.000000 0.000000 0.000000 0.000000 0.000000 0.000000 
2.692445 17.603122 2.518073 -28.450816 -37.920324 32.139638 11.848314 -0.250560 -6.830565 1.834770 -1.619755 -3.859219 -5.797448 -1.442114 -0.269651 19.466401 -11.965821 -2.308073 -1.811410 -0.199187 1.379090 0.000000 0.000000 0.000000 4.930469 2.840000 -1.445913 -79.829987 -3.802917 14.668948 -0.428780 -79.150148 -0.099330 15.431560 -4.661655 -0.697913 -0.175587 0.451033 0.000000 0.000000 0.000000 0.000000 0.000000 0.000000 0.000000 9.834738 -8.436960 -1.466079 47.707734 33.397285 16.848555 178.987512 60.378761 179.869228 -14.863838 10.918495 -1.599321 0.501410 -0.917167 -0.000000 0.000000 0.000000 0.000000 0.000000 0.000000 0.000000 
2.642707 17.602968 2.515115 -27.861337 -38.301971 31.916500 10.924655 -0.369460 -7.122874 1.623817 -1.660683 -3.920966 -5.929483 -1.484695 -0.217960 19.659966 -12.086292 -2.345935 -1.857059 -0.202984 1.375857 0.000000 0.000000 0.000000 5.180836 2.602532 -1.458029 -79.125104 -3.000967 14.440840 -0.425626 -79.152484 -0.097213 15.442084 -4.765047 -0.711607 -0.174381 0.443669 0.000000 0.000000 0.000000 0.000000 0.000000 0.000000 0.000000 10.292182 -8.571795 -1.459992 48.286393 33.473945 17.180322 178.937843 60.448076 179.869667 -14.895730 10.919331 -1.603473 0.507066 -0.918928 -0.000000 0.000000 0.000000 0.000000 0.000000 0.000000 0.000000 
2.590422 17.601522 2.513137 -27.291481 -38.750886 31.767246 9.997897 -0.459087 -7.474284 1.408335 -1.675751 -3.991448 -6.066278 -1.500850 -0.158261 19.852582 -12.199945 -2.389259 -1.898065 -0.206410 1.370728 0.000000 0.000000 0.000000 5.414804 2.436313 -1.473477 -78.401327 -2.217650 14.266189 -0.421636 -79.185718 -0.094895 15.429500 -4.853413 -0.721994 -0.173410 0.436123 0.000000 0.000000 0.000000 0.000000 0.000000 0.000000 0.000000 10.715229 -8.681225 -1.458753 48.893272 33.479881 17.502563 178.885744 60.469536 179.870527 -14.876960 10.932840 -1.604011 0.511516 -0.921751 -0.000000 0.000000 0.000000 0.000000 0.000000 0.000000 0.000000 
2.536083 17.598667 2.511941 -26.757794 -39.271670 31.701489 9.081418 -0.519419 -7.883412 1.191078 -1.665860 -4.070218 -6.207681 -1.491339 -0.090017 20.041353 -12.297645 -2.437917 -1.934942 -0.209484 1.363663 0.000000 0.000000 0.000000 5.628397 2.356853 -1.490872 -77.660250 -1.461487 14.137772 -0.416636 -79.249748 -0.092423 15.398702 -4.925213 -0.729273 -0.172777 0.428437 0.000000 0.000000 0.000000 0.000000 0.000000 0.000000 0.000000 11.103804 -8.755891 -1.463899 49.523288 33.426007 17.813193 178.833528 60.450274 179.871732 -14.814410 10.958425 -1.601536 0.514768 -0.925537 -0.000000 0.000000 0.000000 0.000000 0.000000 0.000000 0.000000 
2.480118 17.594436 2.511201 -26.271308 -39.862711 31.722243 8.186665 -0.551825 -8.343364 0.974615 -1.632800 -4.156028 -6.353112 -1.457863 -0.013540 20.224351 -12.373224 -2.492161 -1.968039 -0.212206 1.354495 0.000000 0.000000 0.000000 5.821399 2.372794 -1.508545 -76.906216 -0.742984 14.045966 -0.410399 -79.339161 -0.089867 15.357577 -4.981282 -0.733945 -0.172592 0.420679 0.000000 0.000000 0.000000 0.000000 0.000000 0.000000 0.000000 11.458600 -8.790161 -1.476073 50.172092 33.324331 18.109321 178.783410 60.399744 179.873171 -14.718554 10.993976 -1.596851 0.516943 -0.930107 -0.000000 0.000000 0.000000 0.000000 0.000000 0.000000 0.000000 
